D:\school\WTK\thesis\model\3dpredictsim\Results\batch_windlass\Pog_s1_tmt_bCst_d00_k800_WL20_ig24_pas_GRF.mot
nRows=12
nColumns=19

name D:\school\WTK\thesis\model\3dpredictsim\Results\batch_windlass\Pog_s1_tmt_bCst_d00_k800_WL20_ig24_pas_GRF.mot
datacolumns 19
datarows 12
range 0.5252469495 0.6408012784
endheader
time 	ground_force_vx	ground_force_vy	ground_force_vz	ground_force_px	ground_force_py	ground_force_pz	1_ground_force_vx	1_ground_force_vy	1_ground_force_vz	1_ground_force_px	1_ground_force_py	1_ground_force_pz	ground_torque_x	ground_torque_y	ground_torque_z	1_ground_torque_x	1_ground_torque_y	1_ground_torque_z
        0.5252469495	       94.4504239730	      453.9587680209	       -2.5446482005	        0.3236091132	        0.0000000000	        0.0359620247	      -78.9786826593	       55.9492163067	      -16.7483401665	        0.7800763315	        0.0000000000	       -0.0469134033	        0.0000000000	        0.0000000000	        0.0000000000	        0.0000000000	        0.0000000000	        0.0000000000	
        0.5357518885	       73.2921463889	      361.8417949191	        0.8087353270	        0.3288624743	        0.0000000000	        0.0337529831	     -133.3260795335	      115.7593354379	      -34.0054130756	        0.7948318850	        0.0000000000	       -0.0458346183	        0.0000000000	        0.0000000000	        0.0000000000	        0.0000000000	        0.0000000000	        0.0000000000	
        0.5462568275	       42.1953857791	      259.9321464208	       11.2648725078	        0.3375909220	        0.0000000000	        0.0296574904	     -139.9799016906	      255.9538642795	      -46.6381007673	        0.8108237183	        0.0000000000	       -0.0464932846	        0.0000000000	        0.0000000000	        0.0000000000	        0.0000000000	        0.0000000000	        0.0000000000	
        0.5567617665	       17.1594975449	      171.1039155047	       14.7931594894	        0.3514964692	        0.0000000000	        0.0218339643	      -83.1338019242	      514.9470978356	       -8.9104715364	        0.8220026927	        0.0000000000	       -0.0456847569	        0.0000000000	        0.0000000000	        0.0000000000	        0.0000000000	        0.0000000000	        0.0000000000	
        0.5672667055	        0.4678937883	      140.3989142238	       15.6441194296	        0.3529396588	        0.0000000000	        0.0206463480	     -105.1384146959	      784.0389556706	        8.0628077744	        0.8340145694	        0.0000000000	       -0.0445044339	        0.0000000000	        0.0000000000	        0.0000000000	        0.0000000000	        0.0000000000	        0.0000000000	
        0.5777716445	       -4.0896546561	      102.6068311645	       14.9576701385	        0.3532168077	        0.0000000000	        0.0206795895	     -122.1960049020	      919.6200907243	       11.0896002804	        0.8406603034	        0.0000000000	       -0.0434929203	        0.0000000000	        0.0000000000	        0.0000000000	        0.0000000000	        0.0000000000	        0.0000000000	
        0.5882765834	      -12.2911933990	       57.6649016763	       11.0910599232	        0.3528315417	        0.0000000000	        0.0206230441	     -121.7423436928	      928.7078904509	       10.4979787926	        0.8445198937	        0.0000000000	       -0.0427935877	        0.0000000000	        0.0000000000	        0.0000000000	        0.0000000000	        0.0000000000	        0.0000000000	
        0.5987815224	       -7.7186010325	        9.8719699892	        2.0259628713	        0.0000000000	        0.0000000000	        0.0000000000	     -110.8589031408	      892.1778565570	        9.1118420508	        0.8472748723	        0.0000000000	       -0.0422735423	        0.0000000000	        0.0000000000	        0.0000000000	        0.0000000000	        0.0000000000	        0.0000000000	
        0.6092864614	        0.0031665129	       -0.0028334445	       -0.0000281011	        0.0000000000	        0.0000000000	        0.0000000000	      -97.8594896733	      846.6235581156	       10.4154309912	        0.8496872787	        0.0000000000	       -0.0418514988	        0.0000000000	        0.0000000000	        0.0000000000	        0.0000000000	        0.0000000000	        0.0000000000	
        0.6197914004	        0.0000714106	       -0.0000540875	        0.0000026582	        0.0000000000	        0.0000000000	        0.0000000000	      -83.8327937256	      800.6447811942	       11.9374629581	        0.8520911445	        0.0000000000	       -0.0415478252	        0.0000000000	        0.0000000000	        0.0000000000	        0.0000000000	        0.0000000000	        0.0000000000	
        0.6302963394	        0.0000906277	       -0.0000611828	        0.0000046382	        0.0000000000	        0.0000000000	        0.0000000000	      -70.6683294129	      757.2816912799	       12.9681160924	        0.8546569895	        0.0000000000	       -0.0413539566	        0.0000000000	        0.0000000000	        0.0000000000	        0.0000000000	        0.0000000000	        0.0000000000	
        0.6408012784	        0.0013600219	       -0.0008425036	        0.0000806975	        0.0000000000	        0.0000000000	        0.0000000000	      -58.8295156659	      718.4875659528	       14.2056976347	        0.8575923001	        0.0000000000	       -0.0412400037	        0.0000000000	        0.0000000000	        0.0000000000	        0.0000000000	        0.0000000000	        0.0000000000	
